<?xml version="1.0" encoding="utf-8"?>
<svg xmlns="http://www.w3.org/2000/svg" viewBox="374 373 753 753" width="365.456px" height="365.456px">
  <path d="M750.5 373C542.579 373 374 541.579 374 749.5C374 957.421 542.579 1126 750.5 1126C958.421 1126 1127 957.421 1127 749.5C1127 541.579 958.421 373 750.5 373ZM711.346 496.6L891.641 676.831L801.494 766.978L711.346 676.831L621.2 766.978L531.115 676.831L711.346 496.6ZM961.866 852.74L820.225 994.444C809.575 1005.09 792.285 1005.09 781.635 994.444L620.636 833.445L710.783 743.298L800.93 833.445L891.077 743.298L961.929 814.15C972.516 824.8 972.516 842.09 961.866 852.74Z" fill="#C3EDDB"/>
</svg>